<svg aria-hidden="true" style="position: absolute; width: 0; height: 0; overflow: hidden;" version="1.1" xmlns="http://www.w3.org/2000/svg" xmlns:xlink="http://www.w3.org/1999/xlink">
<defs>
<symbol id="icon-github" viewBox="0 0 32 32">
<title>github</title>
<path d="M16 0.395c-8.836 0-16 7.163-16 16 0 7.069 4.585 13.067 10.942 15.182 0.8 0.148 1.094-0.347 1.094-0.77 0-0.381-0.015-1.642-0.022-2.979-4.452 0.968-5.391-1.888-5.391-1.888-0.728-1.849-1.776-2.341-1.776-2.341-1.452-0.993 0.11-0.973 0.11-0.973 1.606 0.113 2.452 1.649 2.452 1.649 1.427 2.446 3.743 1.739 4.656 1.33 0.143-1.034 0.558-1.74 1.016-2.14-3.554-0.404-7.29-1.777-7.29-7.907 0-1.747 0.625-3.174 1.649-4.295-0.166-0.403-0.714-2.030 0.155-4.234 0 0 1.344-0.43 4.401 1.64 1.276-0.355 2.645-0.532 4.005-0.539 1.359 0.006 2.729 0.184 4.008 0.539 3.054-2.070 4.395-1.64 4.395-1.64 0.871 2.204 0.323 3.831 0.157 4.234 1.026 1.12 1.647 2.548 1.647 4.295 0 6.145-3.743 7.498-7.306 7.895 0.574 0.497 1.085 1.47 1.085 2.963 0 2.141-0.019 3.864-0.019 4.391 0 0.426 0.288 0.925 1.099 0.768 6.354-2.118 10.933-8.113 10.933-15.18 0-8.837-7.164-16-16-16z"></path>
</symbol>
<symbol id="icon-codepen" viewBox="0 0 32 32">
<title>codepen</title>
<path d="M29.555 11.501l-14-9.333c-0.336-0.224-0.774-0.224-1.109 0l-14 9.333c-0.278 0.185-0.445 0.498-0.445 0.832v9.333c0 0.334 0.167 0.647 0.445 0.832l14 9.333c0.168 0.112 0.361 0.168 0.555 0.168s0.387-0.056 0.555-0.168l14-9.333c0.278-0.185 0.445-0.498 0.445-0.832v-9.333c0-0.334-0.167-0.647-0.445-0.832zM15 20.465l-5.197-3.465 5.197-3.465 5.197 3.465-5.197 3.465zM16 11.798v-6.93l11.197 7.465-5.197 3.465-6-4zM14 11.798l-6 4-5.197-3.465 11.197-7.465v6.93zM6.197 17l-4.197 2.798v-5.596l4.197 2.798zM8 18.202l6 4v6.93l-11.197-7.465 5.197-3.465zM16 22.202l6-4 5.197 3.465-11.197 7.465v-6.93zM23.803 17l4.197-2.798v5.596l-4.197-2.798z"></path>
</symbol>
<symbol id="icon-linkedin" viewBox="0 0 32 32">
<title>linkedin</title>
<path d="M29 0h-26c-1.65 0-3 1.35-3 3v26c0 1.65 1.35 3 3 3h26c1.65 0 3-1.35 3-3v-26c0-1.65-1.35-3-3-3zM12 26h-4v-14h4v14zM10 10c-1.106 0-2-0.894-2-2s0.894-2 2-2c1.106 0 2 0.894 2 2s-0.894 2-2 2zM26 26h-4v-8c0-1.106-0.894-2-2-2s-2 0.894-2 2v8h-4v-14h4v2.481c0.825-1.131 2.087-2.481 3.5-2.481 2.488 0 4.5 2.238 4.5 5v9z"></path>
</symbol>
<symbol id="icon-twitter" viewBox="0 0 32 32">
<title>twitter</title>
<path d="M32 7.075c-1.175 0.525-2.444 0.875-3.769 1.031 1.356-0.813 2.394-2.1 2.887-3.631-1.269 0.75-2.675 1.3-4.169 1.594-1.2-1.275-2.906-2.069-4.794-2.069-3.625 0-6.563 2.938-6.563 6.563 0 0.512 0.056 1.012 0.169 1.494-5.456-0.275-10.294-2.888-13.531-6.862-0.563 0.969-0.887 2.1-0.887 3.3 0 2.275 1.156 4.287 2.919 5.463-1.075-0.031-2.087-0.331-2.975-0.819 0 0.025 0 0.056 0 0.081 0 3.181 2.263 5.838 5.269 6.437-0.55 0.15-1.131 0.231-1.731 0.231-0.425 0-0.831-0.044-1.237-0.119 0.838 2.606 3.263 4.506 6.131 4.563-2.25 1.762-5.075 2.813-8.156 2.813-0.531 0-1.050-0.031-1.569-0.094 2.913 1.869 6.362 2.95 10.069 2.95 12.075 0 18.681-10.006 18.681-18.681 0-0.287-0.006-0.569-0.019-0.85 1.281-0.919 2.394-2.075 3.275-3.394z"></path>
</symbol>
<symbol id="icon-facebook" viewBox="0 0 32 32">
<title>facebook</title>
<path d="M29 0h-26c-1.65 0-3 1.35-3 3v26c0 1.65 1.35 3 3 3h13v-14h-4v-4h4v-2c0-3.306 2.694-6 6-6h4v4h-4c-1.1 0-2 0.9-2 2v2h6l-1 4h-5v14h9c1.65 0 3-1.35 3-3v-26c0-1.65-1.35-3-3-3z"></path>
</symbol>
<symbol id="icon-window-maximize" viewBox="0 0 28 28">
<title>window-maximize</title>
<path d="M4 22h20v-12h-20v12zM28 4.5v19c0 1.375-1.125 2.5-2.5 2.5h-23c-1.375 0-2.5-1.125-2.5-2.5v-19c0-1.375 1.125-2.5 2.5-2.5h23c1.375 0 2.5 1.125 2.5 2.5z"></path>
</symbol>
<symbol id="icon-location-arrow" viewBox="0 0 22 28">
<title>location-arrow</title>
<path d="M21.891 5.453l-10 20c-0.172 0.344-0.516 0.547-0.891 0.547-0.078 0-0.156-0.016-0.234-0.031-0.453-0.109-0.766-0.5-0.766-0.969v-9h-9c-0.469 0-0.859-0.313-0.969-0.766s0.109-0.922 0.516-1.125l20-10c0.141-0.078 0.297-0.109 0.453-0.109 0.266 0 0.516 0.094 0.703 0.297 0.313 0.297 0.391 0.766 0.187 1.156z"></path>
</symbol>
<symbol id="icon-diamond" viewBox="0 0 32 28">
<title>diamond</title>
<path d="M3.313 12l9.734 10.391-4.688-10.391h-5.047zM16 24.063l5.453-12.063h-10.906zM8.406 10l3.187-6h-4.094l-4.5 6h5.406zM18.953 22.391l9.734-10.391h-5.047zM10.672 10h10.656l-3.187-6h-4.281zM23.594 10h5.406l-4.5-6h-4.094zM25.797 2.406l6 8c0.297 0.375 0.266 0.922-0.063 1.281l-15 16c-0.187 0.203-0.453 0.313-0.734 0.313s-0.547-0.109-0.734-0.313l-15-16c-0.328-0.359-0.359-0.906-0.063-1.281l6-8c0.187-0.266 0.484-0.406 0.797-0.406h18c0.313 0 0.609 0.141 0.797 0.406z"></path>
</symbol>
<symbol id="icon-commenting" viewBox="0 0 28 28">
<title>commenting</title>
<path d="M10 14c0-1.109-0.891-2-2-2s-2 0.891-2 2 0.891 2 2 2 2-0.891 2-2zM16 14c0-1.109-0.891-2-2-2s-2 0.891-2 2 0.891 2 2 2 2-0.891 2-2zM22 14c0-1.109-0.891-2-2-2s-2 0.891-2 2 0.891 2 2 2 2-0.891 2-2zM28 14c0 5.531-6.266 10-14 10-1.141 0-2.25-0.094-3.297-0.281-1.781 1.781-4.109 3-6.797 3.578-0.422 0.078-0.875 0.156-1.344 0.203-0.25 0.031-0.484-0.141-0.547-0.375v0c-0.063-0.25 0.125-0.406 0.313-0.578 0.984-0.922 2.156-1.656 2.562-4.953-2.984-1.828-4.891-4.547-4.891-7.594 0-5.531 6.266-10 14-10s14 4.469 14 10z"></path>
</symbol>
</defs>
</svg>
